<?xml version="1.0" encoding="UTF-8"?>
<svg width="22px" height="22px" viewBox="0 0 22 22" version="1.1" xmlns="http://www.w3.org/2000/svg" xmlns:xlink="http://www.w3.org/1999/xlink">
    <!-- Generator: Sketch 52.3 (67297) - http://www.bohemiancoding.com/sketch -->
    <title>Search / Base</title>
    <desc>Created with Sketch.</desc>
    <g id="Page-1" stroke="none" stroke-width="1" fill="none" fill-rule="evenodd">
        <g id="01-Vote" transform="translate(-340.000000, -180.000000)" fill="#333333">
            <g id="Step-1" transform="translate(277.000000, 137.000000)">
                <g transform="translate(41.000000, 25.000000)" id="Search-/-Base">
                    <path d="M29.9999727,18 C34.4249576,18 37.9749455,21.6249876 37.9749455,25.9999727 C37.9749455,30.4249576 34.4249576,33.9749455 29.9999727,33.9749455 C25.5749878,33.9749455 22,30.4249576 22,25.9999727 C22,21.6249876 25.5749878,18 29.9999727,18 Z M29.9999727,20.0249931 C26.674984,20.0249931 24.0249931,22.674984 24.0249931,25.9999727 C24.0249931,29.2999614 26.674984,31.9999522 29.9999727,31.9999522 C33.2999614,31.9999522 35.9999522,29.2999614 35.9999522,25.9999727 C35.9999522,22.674984 33.2999614,20.0249931 29.9999727,20.0249931 Z M38.0249453,31.9999522 L43.9999249,37.9749318 L41.9749318,39.9999249 L35.9999522,34.0249453 L35.9999522,32.9999488 L36.9999488,31.9999522 L38.0249453,31.9999522 Z"></path>
                </g>
            </g>
        </g>
    </g>
</svg>